<svg xmlns="http://www.w3.org/2000/svg" height="40" viewBox="0 -960 960 960" width="40"><path d="M421.538-500h116.924v-292.308q0-24.384-16.872-41.423-16.872-17.038-41.59-17.038-24.718 0-41.59 16.871-16.872 16.872-16.872 41.59V-500ZM189.231-349.231h581.538v-92.308q0-10.769-6.923-17.692t-17.692-6.923H213.846q-10.769 0-17.692 6.923t-6.923 17.692v92.308Zm-33.796 240h115.334v-103.076q0-7.193 4.91-12.058 4.909-4.866 12.166-4.866 7.258 0 12.014 4.866 4.756 4.865 4.756 12.058v103.076h158.462v-103.076q0-7.193 4.909-12.058 4.91-4.866 12.167-4.866t12.014 4.866q4.756 4.865 4.756 12.058v103.076h158.462v-103.076q0-7.193 4.909-12.058 4.909-4.866 12.167-4.866 7.257 0 12.013 4.866 4.757 4.865 4.757 12.058v103.076h115.334q12.307 0 19.743-9.615 7.436-9.615 4.103-21.154l-52.308-181.538H183.897L131.589-140q-3.333 11.539 4.103 21.154t19.743 9.615Zm647.18 33.847h-645.23q-29.001 0-47.616-23.308T99.615-150.77l55.769-191.539V-440q0-25.308 17.347-42.654Q190.077-500 215.385-500h172.307v-292.308q0-38.461 26.923-65.385 26.923-26.923 65.385-26.923t65.385 26.923q26.923 26.924 26.923 65.385V-500h172.307q25.308 0 42.654 17.346 17.347 17.346 17.347 42.654v97.692l55.769 193.077q8.179 28-10.218 50.923-18.398 22.924-47.552 22.924Zm-31.846-390.77H189.231h581.538ZM538.462-500H421.538h116.924Z"/></svg>