<svg xmlns="http://www.w3.org/2000/svg" height="40" viewBox="0 -960 960 960" width="40"><path d="M468.667-306h24v-214h-24v214Zm11.321-262.667q7.845 0 13.262-5.216 5.417-5.217 5.417-13.45 0-8.134-5.405-13.4-5.405-5.267-13.25-5.267-8.512 0-13.595 5.267-5.084 5.266-5.084 13.4 0 8.233 5.405 13.45 5.405 5.216 13.25 5.216ZM480.351-132q-72.663 0-135.732-27.391-63.069-27.392-110.418-74.681-47.349-47.29-74.775-110.329Q132-407.44 132-480.159q0-72.054 27.391-135.506 27.392-63.452 74.681-110.467 47.29-47.016 110.329-74.442Q407.44-828 480.159-828q72.054 0 135.506 27.391 63.452 27.392 110.467 74.348 47.016 46.957 74.442 110.435Q828-552.348 828-480.351q0 72.663-27.391 135.732-27.392 63.069-74.348 110.295-46.957 47.227-110.435 74.775Q552.348-132 480.351-132Zm-.018-24q135 0 229.334-94.333Q804-344.667 804-480.333q0-135-94.208-229.334Q615.583-804 480-804q-135.333 0-229.667 94.208Q156-615.583 156-480q0 135.333 94.333 229.667Q344.667-156 480.333-156ZM480-480Z"/></svg>